<?xml version="1.0" encoding="utf-8"?>
<!-- Generator: Adobe Illustrator 23.0.1, SVG Export Plug-In . SVG Version: 6.00 Build 0)  -->
<svg version="1.1" id="Layer_1" xmlns="http://www.w3.org/2000/svg" xmlns:xlink="http://www.w3.org/1999/xlink" x="0px" y="0px"
	 viewBox="0 0 235 143" style="enable-background:new 0 0 235 143;" xml:space="preserve">
<style type="text/css">
	.st0{fill:#002856;}
</style>
<g>
	<g>
		<path class="st0" d="M8.2,80.7c0-0.4,0-0.8-0.1-1.1C8,79.3,7.9,79,7.7,78.8c-0.2-0.2-0.4-0.3-0.8-0.4c-0.3-0.1-0.7-0.1-1.3-0.1
			c-0.3,0-0.7,0-1.1,0.1s-0.9,0.1-1.4,0.1L3,77c1-0.2,2-0.3,2.9-0.4s1.7-0.2,2.5-0.3c0.8-0.1,1.5-0.2,2.2-0.2c0.7,0,1.3-0.1,1.9-0.1
			c1.7,0,3.3,0,4.8,0s2.8-0.1,4-0.1c1.2,0,2.1-0.1,2.9-0.1c0.7,0,1.2,0,1.4,0c0.5,0,0.9,0.1,1.1,0.3c0.3,0.2,0.4,0.6,0.4,1
			c0,0.2,0,0.6-0.1,1.1c0,0.5-0.1,1.2-0.1,1.9c-0.1,0.7-0.1,1.5-0.2,2.2c-0.1,0.8-0.2,1.5-0.2,2.2l-1.5,0c0-0.4,0-0.8,0-1.1
			c0-0.3,0-0.7,0-1c0-0.9-0.1-1.6-0.2-2.1c-0.1-0.6-0.3-1-0.6-1.3c-0.3-0.3-0.7-0.5-1.1-0.6c-0.5-0.1-1.1-0.2-1.8-0.2
			c-0.5,0-1,0-1.5,0c-0.5,0-0.9,0-1.4,0h-3.2c-0.2,0-0.4,0-0.6,0c-0.2,0-0.4,0-0.6,0c-0.2,0-0.4,0-0.7,0c-0.3,0-0.5,0-0.8,0
			c0,1.8-0.1,3.9-0.2,6.4c-0.1,2.5-0.1,5.3-0.2,8.4c1.4,0.1,2.6,0.1,3.7,0.1c1.1,0,2.1,0,2.9,0c1.1,0,2.1,0,2.9-0.1
			c0.8-0.1,1.6-0.2,2.4-0.3c0.2,0.5,0.3,0.9,0.3,1.2c0,0.3-0.1,0.6-0.3,0.8s-0.5,0.4-0.8,0.5c-0.4,0.1-0.8,0.2-1.3,0.3
			c-0.5,0.1-1.1,0.1-1.7,0.1c-1.1,0-2.3-0.1-3.7-0.2s-2.9-0.3-4.4-0.4c0,1.3-0.1,2.6-0.1,4c0,1.4-0.1,2.8-0.1,4.2
			c0,1.4-0.1,2.9-0.1,4.4c0,1.5-0.1,2.9-0.1,4.4l-3.7,0.5l-0.3,0c0.1-3,0.2-5.9,0.3-8.5c0.1-2.7,0.2-5.3,0.3-7.9
			c0.1-2.5,0.1-5.1,0.2-7.6C8.2,85.9,8.2,83.3,8.2,80.7z"/>
		<path class="st0" d="M33.3,80.8c0-0.5,0-0.9-0.1-1.3c0-0.3-0.2-0.6-0.3-0.9c-0.2-0.2-0.4-0.4-0.7-0.5c-0.3-0.1-0.7-0.1-1.2-0.1
			c-0.3,0-0.8,0-1.3,0.1c-0.5,0-1,0.1-1.6,0.2L27.9,77c1.5-0.4,2.9-0.7,4-0.9c1.1-0.2,2-0.3,2.7-0.3c0.7,0,1.2,0.1,1.6,0.3
			c0.4,0.2,0.6,0.5,0.8,0.8c0.2,0.4,0.3,0.8,0.3,1.3c0,0.5,0,1.1,0,1.8c0,0,0,0.4,0,1c0,0.6,0,1.5-0.1,2.6c0,1.1-0.1,2.3-0.1,3.7
			c0,1.4-0.1,2.9-0.1,4.5c0,1.6-0.1,3.2-0.2,4.9c-0.1,1.7-0.1,3.3-0.2,4.9c-0.1,1.6-0.2,3.1-0.3,4.5c-0.1,1.4-0.2,2.6-0.3,3.7
			c1-0.1,2-0.3,2.8-0.3c0.9-0.1,1.7-0.1,2.5-0.1c1.1,0,2.1,0,3,0.1c0.9,0.1,1.9,0.1,2.8,0.1c0.6,0,1.2-0.1,1.7-0.3
			c0.5-0.2,0.9-0.5,1.3-1c0.4-0.5,0.7-1.1,0.9-1.9c0.2-0.8,0.4-1.8,0.5-3.1l1.4,0.1c0,1.8-0.1,3.4-0.3,4.5c-0.2,1.2-0.5,2.1-0.9,2.8
			c-0.4,0.7-0.9,1.2-1.5,1.4c-0.6,0.3-1.2,0.4-2,0.4c-0.6,0-1.2-0.1-1.8-0.2c-0.7-0.1-1.4-0.2-2.2-0.4s-1.6-0.2-2.6-0.4
			c-0.9-0.1-1.9-0.2-3-0.2c-1,0-2,0.1-3.1,0.2c-1.1,0.1-2.3,0.3-3.4,0.6l-0.3,0c0.2-1.4,0.3-3,0.5-4.6c0.1-1.6,0.2-3.4,0.3-5.1
			c0.1-1.8,0.2-3.6,0.2-5.5c0.1-1.9,0.1-3.7,0.1-5.6c0-1.9,0.1-3.7,0.1-5.5C33.3,84.2,33.3,82.5,33.3,80.8z"/>
		<path class="st0" d="M60.3,103.4c-0.4,1.1-0.7,2-1,2.8c-0.3,0.8-0.5,1.5-0.7,2.1c-0.2,0.6-0.4,1.1-0.5,1.5
			c-0.2,0.4-0.3,0.8-0.4,1.2c-0.2,0.4-0.4,0.7-0.6,0.9c-0.2,0.2-0.4,0.4-0.7,0.5c-0.2,0.1-0.5,0.2-0.8,0.2c-0.3,0-0.6,0-0.9,0
			c-0.2,0-0.4,0-0.7,0c-0.3,0-0.5,0-0.7,0l-0.2-0.2c1.3-2.7,2.4-5.3,3.6-7.8c1.1-2.5,2.2-4.9,3.3-7.1c-0.2-0.3-0.3-0.6-0.3-0.9
			c0-0.4,0.3-0.6,1-0.6c1.9-4.2,3.6-7.9,5.1-11.1c1.5-3.2,2.8-5.9,4-8.1c0.1-0.2,0.2-0.4,0.4-0.5c0.2-0.1,0.4-0.2,0.5-0.3
			c0.2-0.1,0.4-0.1,0.6-0.2c0.2,0,0.4,0,0.6,0c0.3,0,0.6,0,0.9,0.1c0.3,0.1,0.6,0.2,0.9,0.3c0.7,3.6,1.3,6.9,1.8,9.8
			s1.1,5.5,1.5,7.8c0.5,2.3,0.9,4.3,1.3,5.9c0.4,1.7,0.8,3.1,1.2,4.4c0.4,1.2,0.8,2.2,1.2,3c0.4,0.8,0.8,1.4,1.2,1.9
			c0.4,0.5,0.9,0.8,1.3,0.9c0.5,0.2,1,0.3,1.5,0.3c0.4,0,0.7,0,1.1-0.1c0.4-0.1,0.8-0.2,1.2-0.4l0.4,1.3c-1.2,0.6-2.4,1.1-3.5,1.4
			c-1.1,0.3-2.1,0.5-2.9,0.5c-0.5,0-0.9-0.1-1.4-0.3c-0.4-0.2-0.8-0.5-1.2-0.9c-0.4-0.4-0.8-1-1.1-1.8c-0.4-0.7-0.7-1.7-1.1-2.8
			c-0.4-1.1-0.8-2.4-1.2-4c-0.4-1.5-0.8-3.3-1.3-5.3c-1.9,0-3.9,0.1-5.7,0.1c-1.9,0.1-3.8,0.2-5.9,0.3c-0.4,1.1-0.8,2.1-1.1,3
			C60.8,101.9,60.5,102.7,60.3,103.4z M73.4,95.7c-0.2-1-0.5-2.2-0.7-3.4c-0.3-1.3-0.5-2.6-0.8-4c-0.3-1.4-0.5-2.9-0.8-4.4
			c-0.3-1.5-0.5-3.1-0.8-4.6h-0.1c-1.5,3.1-2.9,6.1-4,8.9c-1.2,2.8-2.2,5.4-3.2,7.8c1.8,0,3.5-0.1,5.2-0.1S71.7,95.7,73.4,95.7z"/>
		<path class="st0" d="M89.9,79.6c0.4,1.2,0.8,2.7,1.3,4.4c0.5,1.7,1,3.8,1.5,6.1c0.5,2.3,1.1,5,1.7,8c0.6,3,1.2,6.4,1.9,10.2h0.1
			c1-1.9,1.9-3.8,2.9-5.6c0.9-1.9,1.8-3.7,2.6-5.4c0.8-1.8,1.6-3.5,2.2-5.1c0.7-1.6,1.3-3.2,1.8-4.6c0.5-1.4,0.9-2.7,1.1-3.9
			c0.3-1.2,0.4-2.2,0.4-3.1c0-2.2-0.7-3.9-2.2-5.2l0.1-0.3c0.2,0,0.4-0.1,0.6-0.1c0.2,0,0.4,0,0.6,0c0.5,0,1.1,0.1,1.6,0.2
			s1,0.3,1.4,0.7c0.4,0.3,0.7,0.7,1,1.2c0.3,0.5,0.4,1.2,0.4,1.9c0,0.7-0.2,1.6-0.5,2.8c-0.3,1.2-0.8,2.6-1.4,4.2
			c-0.6,1.6-1.3,3.4-2.2,5.4c-0.9,2-1.9,4.1-2.9,6.3c-1.1,2.2-2.3,4.6-3.6,7c-1.3,2.5-2.7,5-4.1,7.5l-2.6,0.2l-0.3,0
			c-1.6-8.3-3-15.1-4.1-20.3s-2.1-8.9-3-11.1c-0.2-0.6-0.4-1-0.6-1.4c-0.2-0.4-0.5-0.7-0.8-1c-0.3-0.3-0.6-0.4-1-0.5
			c-0.4-0.1-0.8-0.2-1.4-0.2c-0.3,0-0.7,0-1.1,0.1c-0.4,0-0.9,0.1-1.4,0.2L79.6,77c1.6-0.4,3-0.7,4.1-0.9c1.1-0.2,2-0.3,2.7-0.3
			c0.5,0,1,0.1,1.3,0.2c0.3,0.2,0.6,0.4,0.9,0.7c0.2,0.3,0.5,0.7,0.7,1.2C89.4,78.3,89.6,78.9,89.9,79.6z"/>
		<path class="st0" d="M127.3,112.8c-2.1,0-4-0.4-5.8-1.1s-3.3-1.8-4.5-3.3c-1.3-1.4-2.3-3.2-3-5.4c-0.7-2.2-1.1-4.7-1.1-7.5
			c0-1.8,0.1-3.6,0.4-5.3c0.3-1.7,0.7-3.3,1.3-4.9c0.6-1.5,1.3-2.9,2.2-4.2c0.9-1.3,1.9-2.4,3-3.3c1.2-0.9,2.5-1.6,3.9-2.2
			c1.4-0.5,3-0.8,4.8-0.8c2.1,0,4,0.4,5.8,1.1c1.8,0.7,3.3,1.8,4.5,3.3c1.3,1.4,2.3,3.2,3,5.4c0.7,2.2,1.1,4.7,1.1,7.5
			c0,1.8-0.1,3.6-0.4,5.3c-0.3,1.7-0.7,3.3-1.3,4.9c-0.6,1.5-1.3,2.9-2.2,4.2c-0.9,1.3-1.9,2.4-3,3.3c-1.2,0.9-2.5,1.6-3.9,2.2
			C130.6,112.5,129.1,112.8,127.3,112.8z M128,110.7c1.2,0,2.3-0.2,3.3-0.6c1-0.4,1.9-1,2.7-1.7c0.8-0.7,1.5-1.6,2-2.6
			c0.6-1,1-2.2,1.4-3.4s0.6-2.6,0.8-4.1c0.2-1.5,0.3-3,0.3-4.6c0-2.8-0.3-5.3-0.8-7.4c-0.6-2.1-1.3-3.8-2.3-5.2
			c-1-1.4-2.1-2.4-3.4-3.1c-1.3-0.7-2.6-1-4.1-1c-1.2,0-2.3,0.2-3.3,0.6c-1,0.4-1.9,1-2.7,1.7c-0.8,0.7-1.5,1.6-2,2.6
			c-0.6,1-1,2.2-1.4,3.4c-0.4,1.3-0.6,2.6-0.8,4.1c-0.2,1.5-0.3,3-0.3,4.6c0,2.8,0.3,5.3,0.8,7.4c0.6,2.1,1.3,3.8,2.3,5.2
			c1,1.4,2.1,2.4,3.4,3.1C125.2,110.4,126.6,110.7,128,110.7z"/>
		<path class="st0" d="M176.8,76.1c-0.2,2.3-0.4,4.5-0.5,6.7c-0.2,2.1-0.3,4.2-0.4,6.2c-0.1,2-0.2,4-0.2,6c0,2-0.1,4-0.1,6
			c0,1.6,0,2.9,0.1,4.1c0,1.2,0.2,2.1,0.4,2.9s0.5,1.3,0.9,1.7s0.9,0.5,1.6,0.5c0.4,0,0.9,0,1.4-0.1c0.5-0.1,1.1-0.3,1.9-0.5
			l0.4,1.2c-0.6,0.3-1.1,0.6-1.7,0.8c-0.6,0.2-1.2,0.5-1.8,0.6c-0.6,0.2-1.1,0.3-1.6,0.4c-0.5,0.1-1,0.1-1.4,0.1
			c-0.8,0-1.4-0.2-1.9-0.5c-0.5-0.3-0.9-0.8-1.2-1.3c-0.3-0.6-0.5-1.2-0.6-2c-0.1-0.8-0.1-1.6-0.1-2.6c0-1,0-2.1,0.1-3.3
			c0.1-1.2,0.1-2.3,0.2-3.6l-0.2,0c-0.3,1-0.7,2.1-1.2,3.1c-0.5,1.1-1,2.1-1.6,3.1c-0.6,1-1.3,1.9-2,2.8s-1.5,1.6-2.4,2.3
			c-0.9,0.7-1.8,1.2-2.8,1.6s-2.1,0.6-3.2,0.6c-1.2,0-2.3-0.2-3.2-0.5c-0.9-0.3-1.7-0.8-2.3-1.4c-0.7-0.6-1.2-1.3-1.6-2.1
			c-0.4-0.8-0.7-1.7-1-2.7c-0.2-1-0.4-2-0.5-3.1c-0.1-1.1-0.1-2.2-0.1-3.3c0-1.2,0-2.5,0.1-3.8c0.1-1.3,0.2-2.7,0.3-4
			c0.1-1.3,0.3-2.6,0.4-3.9c0.1-1.3,0.3-2.4,0.4-3.5c0.1-1,0.2-1.9,0.3-2.7c0.1-0.8,0.1-1.3,0.1-1.6c0-0.4,0-0.7-0.1-0.9
			c-0.1-0.3-0.2-0.5-0.4-0.7c-0.2-0.2-0.4-0.3-0.7-0.4c-0.3-0.1-0.7-0.1-1.2-0.1c-0.4,0-0.8,0-1.2,0.1c-0.5,0-1,0.1-1.5,0.2
			l-0.2-1.3c1.6-0.4,2.9-0.7,4-0.9c1.1-0.2,2-0.3,2.7-0.3c0.5,0,1,0.1,1.3,0.2c0.3,0.1,0.6,0.3,0.8,0.5c0.2,0.2,0.3,0.5,0.4,0.9
			c0.1,0.4,0.1,0.8,0.1,1.2c0,0.3,0,0.8-0.1,1.6c-0.1,0.8-0.2,1.7-0.3,2.7c-0.1,1.1-0.3,2.3-0.4,3.6c-0.2,1.3-0.3,2.7-0.4,4.1
			c-0.1,1.4-0.2,2.9-0.3,4.3c-0.1,1.4-0.1,2.8-0.1,4.2c0,0.8,0,1.7,0.1,2.5c0,0.8,0.1,1.7,0.3,2.4c0.1,0.8,0.4,1.5,0.6,2.2
			c0.3,0.7,0.6,1.3,1.1,1.8c0.4,0.5,1,0.9,1.6,1.2c0.6,0.3,1.4,0.4,2.3,0.4c1.1,0,2.1-0.2,3.1-0.7c1-0.5,1.9-1.1,2.8-2
			c0.9-0.9,1.7-1.9,2.4-3.1c0.7-1.2,1.4-2.5,1.9-3.9c0.5-1.4,1-2.9,1.3-4.5c0.3-1.6,0.5-3.2,0.6-4.9c0-0.6,0.1-1.3,0.1-1.9
			c0-0.6,0.1-1.2,0.1-1.9c0-0.6,0.1-1.3,0.1-2c0-0.7,0.1-1.4,0.1-2.2c0-0.8,0.1-1.6,0.1-2.5c0.1-0.9,0.1-1.9,0.2-3
			c0-0.2,0.1-0.4,0.2-0.6c0.1-0.2,0.3-0.3,0.5-0.4c0.2-0.1,0.4-0.2,0.7-0.3c0.2-0.1,0.5-0.1,0.7-0.1c0.3,0,0.6,0,1,0.1
			C176.1,75.9,176.5,76,176.8,76.1z"/>
		<path class="st0" d="M187,80.7c0-0.4,0-0.8-0.1-1.1c-0.1-0.3-0.2-0.6-0.4-0.8c-0.2-0.2-0.4-0.3-0.8-0.4c-0.3-0.1-0.7-0.1-1.2-0.1
			c-0.7,0-1.6,0.1-2.7,0.2l-0.2-1.4c1-0.2,2-0.4,3.2-0.5c1.2-0.2,2.3-0.4,3.6-0.5c1.2-0.2,2.4-0.3,3.7-0.4c1.2-0.1,2.4-0.1,3.5-0.1
			c1.5,0,2.9,0.1,4.2,0.4c1.3,0.3,2.4,0.7,3.4,1.3c1,0.6,1.7,1.4,2.2,2.5c0.5,1,0.8,2.3,0.8,3.8c0,1.4-0.2,2.7-0.7,3.8
			c-0.5,1.2-1.1,2.2-1.9,3.1c-0.8,0.9-1.8,1.7-3,2.3c-1.2,0.6-2.5,1.2-4,1.5c1.1,1.9,2.1,3.5,3,4.9c0.9,1.4,1.7,2.7,2.4,3.7
			c0.7,1.1,1.4,2,2,2.7c0.6,0.8,1.2,1.4,1.7,2c0.4,0.5,0.8,0.8,1.2,1.1c0.4,0.3,0.7,0.6,1.1,0.7c0.4,0.2,0.7,0.3,1.1,0.4
			c0.4,0.1,0.7,0.1,1.1,0.1c0.4,0,0.8,0,1.2-0.1c0.4-0.1,0.8-0.2,1.2-0.4l0.4,1.3c-1.3,0.6-2.5,1.1-3.5,1.4c-1,0.3-1.9,0.4-2.6,0.4
			c-0.3,0-0.7,0-1-0.1c-0.3-0.1-0.6-0.2-0.9-0.4c-0.3-0.2-0.6-0.4-0.9-0.6c-0.3-0.2-0.6-0.5-1-0.9c-0.6-0.5-1.2-1.3-2-2.2
			c-0.7-0.9-1.6-2.1-2.5-3.4c-0.9-1.4-2-3-3.1-4.9c-1.1-1.9-2.4-4.1-3.8-6.5l0-0.2c1.9-0.1,3.4-0.3,4.7-0.8c1.3-0.4,2.3-1,3.1-1.8
			c0.8-0.8,1.4-1.7,1.7-2.7c0.4-1,0.5-2.2,0.5-3.5c0-2.5-0.7-4.3-1.9-5.5c-1.3-1.2-3.2-1.8-5.8-1.8c-0.5,0-1.1,0-1.6,0.1
			c-0.5,0-1,0.1-1.6,0.2c0,0.8,0,1.9-0.1,3.2c0,1.4-0.1,2.9-0.1,4.7c0,1.8-0.1,3.7-0.2,5.8c-0.1,2.1-0.1,4.3-0.2,6.5
			c-0.1,2.3-0.1,4.6-0.2,7c-0.1,2.4-0.1,4.8-0.2,7.2l-3.7,0.5l-0.3,0c0.1-3,0.2-5.9,0.3-8.5c0.1-2.7,0.2-5.3,0.3-7.9
			c0.1-2.5,0.1-5.1,0.2-7.6C186.9,85.9,187,83.3,187,80.7z"/>
		<path class="st0" d="M213.9,102.7c0,0.3-0.1,0.5-0.1,0.7c0,0.2,0,0.5,0,0.7c0,1.2,0.2,2.2,0.5,3c0.3,0.8,0.8,1.5,1.4,2
			s1.3,0.9,2.1,1.1c0.8,0.2,1.8,0.4,2.8,0.4c1,0,2-0.1,3-0.4c0.9-0.3,1.8-0.7,2.5-1.3c0.7-0.6,1.3-1.3,1.7-2.1
			c0.4-0.9,0.6-1.8,0.6-3c0-0.7-0.1-1.4-0.3-2c-0.2-0.6-0.5-1.1-0.8-1.6c-0.3-0.5-0.7-1-1.2-1.4c-0.5-0.4-1-0.8-1.5-1.2
			c-0.6-0.4-1.1-0.7-1.7-1.1c-0.6-0.3-1.2-0.7-1.9-1c-0.7-0.4-1.3-0.7-2-1.1c-0.7-0.4-1.3-0.8-1.9-1.2c-0.6-0.4-1.2-0.9-1.7-1.4
			c-0.5-0.5-1-1-1.3-1.7c-0.4-0.6-0.7-1.3-0.9-2c-0.2-0.7-0.3-1.5-0.3-2.4c0-1.1,0.1-2.1,0.4-3.1c0.3-1,0.7-1.8,1.2-2.6
			c0.5-0.8,1.1-1.5,1.8-2.1c0.7-0.6,1.5-1.2,2.3-1.6c0.8-0.4,1.7-0.8,2.7-1c1-0.2,1.9-0.3,2.9-0.3c0.5,0,1,0,1.5,0.1
			c0.5,0.1,1,0.1,1.6,0.3c0.5,0.1,1,0.3,1.5,0.4c0.5,0.2,0.9,0.3,1.3,0.6c0.4,0.2,0.7,0.4,0.9,0.7c0.2,0.3,0.3,0.5,0.3,0.8
			c0,0.3,0,0.7,0,1.1c0,0.5,0,1,0,1.6c0,0.6,0,1.2-0.1,1.9c0,0.7-0.1,1.4-0.1,2.2l-1.6-0.1c0-0.4,0-0.7,0-1.1c0-1-0.2-2-0.5-2.7
			c-0.3-0.8-0.7-1.4-1.3-2c-0.6-0.5-1.2-0.9-2-1.2c-0.8-0.3-1.7-0.4-2.6-0.4s-1.9,0.2-2.7,0.5c-0.8,0.3-1.6,0.8-2.2,1.3
			c-0.6,0.6-1.1,1.2-1.4,2s-0.5,1.6-0.5,2.6c0,0.8,0.1,1.5,0.3,2.1c0.2,0.6,0.5,1.2,0.8,1.7c0.4,0.5,0.8,1,1.2,1.4
			c0.5,0.4,1,0.8,1.6,1.2c0.6,0.4,1.2,0.7,1.8,1.1c0.6,0.3,1.3,0.7,1.9,1c0.7,0.3,1.3,0.7,2,1.1c0.7,0.4,1.3,0.8,1.9,1.2
			c0.6,0.4,1.1,0.9,1.7,1.4s0.9,1,1.3,1.6c0.4,0.6,0.7,1.2,0.9,2c0.2,0.7,0.3,1.5,0.3,2.4c0,1.4-0.2,2.7-0.6,3.8
			c-0.4,1.1-0.9,2.1-1.6,2.9c-0.7,0.8-1.4,1.5-2.3,2.1c-0.9,0.6-1.7,1-2.7,1.4c-0.9,0.3-1.8,0.6-2.8,0.7c-0.9,0.2-1.8,0.2-2.6,0.2
			c-1,0-2-0.1-2.9-0.2c-0.9-0.1-1.7-0.3-2.4-0.6c-0.7-0.2-1.2-0.5-1.6-0.8c-0.4-0.3-0.6-0.6-0.6-0.9c0-0.7,0-1.7,0.1-3
			c0-1.3,0.1-2.9,0.2-4.7L213.9,102.7z"/>
	</g>
	<g>
		<path class="st0" d="M110.1,45l4.5-12.7c-0.7-0.2-1.3-0.5-1.8-1l-4.6,12.8L110.1,45z"/>
		<path class="st0" d="M97.3,16.9l-2,12.1c0.4,0.2,0.7,0.5,1.1,0.8c1,0.8,1.9,1.5,3.7,1.5s2.7-0.7,3.7-1.5c1.1-0.8,2.3-1.8,4.6-1.8
			c1.7,0,2.8,0.5,3.6,1.1l4.3-12.1L97.3,16.9z"/>
		<path class="st0" d="M89.2,11.9c-1.4,2-2.5,4.2-3.4,6.5c0.1,0,0.2,0,0.3,0.1l9.4,0.9l0.5-3.3c0.1-0.4,0.4-0.6,0.7-0.6h5.6
			l-2.2-11.8C97.1,4.4,93,6.4,89.2,11.9z M96.9,8.7c0.4-0.2,0.8,0,1,0.4l0.5,1.3c0.2,0.4,0,0.8-0.4,1c-0.4,0.2-0.8,0-1-0.4
			c0,0,0,0,0,0l-0.5-1.3C96.3,9.2,96.5,8.8,96.9,8.7C96.9,8.7,96.9,8.7,96.9,8.7z M93.7,11.7c0.3-0.3,0.7-0.3,1,0l0.9,0.9
			c0.3,0.3,0.3,0.7,0,1c-0.3,0.3-0.7,0.3-1,0c0,0,0,0,0,0l-0.9-0.9C93.4,12.5,93.4,12,93.7,11.7z M93.5,16c-0.1,0.4-0.5,0.6-0.9,0.5
			c0,0,0,0,0,0L91.2,16c-0.4-0.1-0.6-0.6-0.4-0.9c0.1-0.4,0.5-0.6,0.9-0.4l1.3,0.5C93.4,15.2,93.6,15.6,93.5,16z"/>
		<path class="st0" d="M84.5,17.6c0.9-2.3,2.1-4.5,3.5-6.5c3.3-4.8,7.3-7.8,11.7-8.9c-0.7-1.2-2.3-1.7-3.5-1.1
			C90.5,3.9,86,8.6,83.6,14.4c-0.4,1-0.2,2.2,0.6,3L84.5,17.6z"/>
		<path class="st0" d="M123.6,1.9c-0.2,0.1-0.4,0.2-0.5,0.4l-9.9,27.6c0.6,0.4,1.1,0.8,1.8,1l9.5-26.9c0.1-0.3,0.3-0.4,0.6-0.5
			l7.9-1.1l-0.3-2L123.6,1.9z"/>
		<path class="st0" d="M136.4,50.4l-3.8,9.5c0.1,0.1,0.2,0.2,0.3,0.3l0.1,0c0.6,0.5,3.2,1.7,6.7,0c0.4-0.2,0.6-0.7,0.5-1.2l-3.3-8.7
			C136.6,50.4,136.5,50.4,136.4,50.4L136.4,50.4z"/>
		<path class="st0" d="M116.5,31.2c0.1,0,0.1,0,0.2,0c1.8,0,2.7-0.7,3.7-1.5c1.1-0.8,2.3-1.8,4.6-1.8c2,0,3.1,0.7,4.1,1.4l-2.2-12.4
			h-5.3L116.5,31.2z"/>
		<path class="st0" d="M137.6,20.8c4-0.1,7-2.5,8.8-4.5c-1.4,0.3-3.2,0.4-5.7-0.3c-0.5-0.1-0.9-0.2-1.4-0.2c-0.7,0-1.5,0.2-2.1,0.6
			c-2.2,1.3-3.3,4.2-3.6,5.1c0,0.1,0,0.1,0.1,0.2C134.3,21.1,135.1,20.8,137.6,20.8L137.6,20.8z"/>
		<path class="st0" d="M138.7,45.7l-4.4,2.4c0.8,0.8,2.1,1,3.1,0.5C138.4,48,138.9,46.9,138.7,45.7z"/>
		<path class="st0" d="M124,53.9c-0.2,0.2-0.2,0.6,0,0.8c1.1,1.5,1.9,2.4,3.2,3.2c0.2,0.1,0.5,0.2,0.8,0.1c0.3-0.1,0.5-0.2,0.6-0.5
			l4.9-8.1c-0.2-0.2-0.3-0.3-0.5-0.5L124,53.9z"/>
		<path class="st0" d="M131.2,25.8c0.3-0.3,0.7-0.3,1,0c0.2,0.2,0.5,0.4,0.8,0.5c0-0.4,0-0.8,0-1.1l-3.3-0.6l4,22.3l14.2-7.8
			c0.3-1.4,0.8-4.6,0.9-5.8c0.2-4.4-1.4-7.3-4.6-8.7c-1.8-0.8-3.8-0.9-5.7-0.3c0,0,0,0,0,0l-4,0.9c0,0.4,0,0.9,0,1.3
			c0.4-0.1,0.8-0.3,1.1-0.6c1.4-1.3,3.2-0.5,3.3-0.5c0.4,0.2,0.5,0.6,0.4,1c-0.2,0.4-0.6,0.5-1,0.4c0,0,0,0,0,0c0,0-1-0.4-1.7,0.2
			c-1,1-2,1.1-2.5,1.1l-0.6,0c-0.9-0.1-1.7-0.5-2.3-1.1C130.9,26.5,130.9,26.1,131.2,25.8C131.2,25.8,131.2,25.8,131.2,25.8
			L131.2,25.8z"/>
		<path class="st0" d="M151,39.8c1.1,1.5,1.8,4.5,1.1,7.1c-0.2,0.8-0.8,1.3-1.5,1.3c-0.1,0-0.1,0-0.2,0l-10.2-1.4c0,0.1,0,0.2,0,0.3
			l9.7,2.8c0.9,0.3,1.4,1.2,1.1,2.1c0,0,0,0,0,0c-0.5,1.6-1.3,3.1-2.5,4.4c-1.1,1.2-2.3,2.1-3.4,2.5c-0.2,0.1-0.5,0.1-0.8,0.1
			c-0.5,0-1-0.3-1.3-0.7l-4.7-8.5c-0.1,0.1-0.2,0.1-0.3,0.2l3.3,8.6c0.4,1.2-0.1,2.5-1.2,3c-1.3,0.6-2.7,1-4.2,1
			c-2.1,0-3.6-0.8-4.1-1.2l-0.1,0c-0.4-0.3-1.1-0.9-0.7-1.9l3.7-9.2c-0.1,0-0.1,0-0.2-0.1l-4.9,8.1c-0.3,0.6-0.9,1-1.5,1.1
			c-0.6,0.2-1.3,0.1-1.9-0.3c-1.5-0.9-2.4-2-3.6-3.5c-0.2-0.2-0.3-0.5-0.4-0.8L122,55c-0.4,0.2-0.5,0.7-0.3,1.1c0,0,0,0,0,0.1
			c5.4,8,16.3,10.1,24.2,4.6c7-4.7,9.6-13.7,6.2-21.4c-0.1-0.2-0.3-0.4-0.5-0.4c-0.1,0-0.2,0-0.3,0c-0.1,0-0.3,0-0.4,0.1l-0.6,0.3
			C150.6,39.4,150.8,39.6,151,39.8L151,39.8z"/>
		<path class="st0" d="M139.5,48.6l4.8,8.8c0.1,0,0.2,0,0.3-0.1c1.7-0.5,4-3,4.9-5.9c0-0.1,0-0.1,0-0.2c0,0-0.1-0.1-0.1-0.1
			l-9.8-2.8C139.6,48.5,139.5,48.6,139.5,48.6z"/>
		<path class="st0" d="M126.8,62.8c-2.6-1.4-4.7-3.5-6.4-5.9c-0.7-1-0.4-2.4,0.6-3.1c0.1,0,0.1-0.1,0.2-0.1l11.2-6.2l-2.9-16.1
			c-0.3-0.2-0.5-0.4-0.8-0.6c-1-0.8-1.9-1.5-3.7-1.5s-2.7,0.7-3.7,1.5c-1.1,0.8-2.3,1.8-4.6,1.8c-0.2,0-0.5,0-0.7,0l-4.8,13.6
			c-0.1,0.4-0.6,0.6-0.9,0.4c0,0,0,0-0.1,0l-3.3-1.4c-0.4-0.2-0.5-0.6-0.4-0.9l4.9-13.9c-0.8-0.6-1.7-1-3.1-1
			c-1.8,0-2.7,0.7-3.7,1.5c-1.1,0.8-2.3,1.8-4.6,1.8c-2.3,0-3.5-0.9-4.6-1.8c-0.1-0.1-0.3-0.2-0.4-0.3l-3.6,22.1
			c-0.5,3.1,0,6.2,1.5,9C95.3,62.2,111.7,65.8,126.8,62.8L126.8,62.8z M122.2,43.6c0.3-0.3,0.7-0.3,1,0c0.3,0.3,0.3,0.7,0,1
			c-0.3,0.3-0.7,0.3-1,0c-0.1-0.1-0.2-0.3-0.2-0.5C122,43.9,122.1,43.7,122.2,43.6L122.2,43.6z M118,33.7c0.3-0.3,0.7-0.3,1,0
			c0.3,0.3,0.3,0.7,0,1s-0.7,0.3-1,0c-0.1-0.1-0.2-0.3-0.2-0.5C117.8,34.1,117.9,33.9,118,33.7L118,33.7z M111,49.2
			c0.3-0.3,0.7-0.3,1,0c0.3,0.3,0.3,0.7,0,1c0,0,0,0,0,0c-0.3,0.3-0.8,0.3-1,0C110.7,49.9,110.7,49.5,111,49.2z M111,59.1
			c0.3-0.3,0.7-0.3,1,0c0.3,0.3,0.3,0.7,0,1c-0.3,0.3-0.7,0.3-1,0c-0.1-0.1-0.2-0.3-0.2-0.5C110.8,59.4,110.8,59.2,111,59.1
			L111,59.1z M101.1,38c0.3-0.3,0.7-0.3,1,0c0.3,0.3,0.3,0.7,0,1c-0.3,0.3-0.7,0.3-1,0c-0.1-0.1-0.2-0.3-0.2-0.5
			C100.9,38.3,101,38.1,101.1,38L101.1,38z M98.3,53.4c0.3-0.3,0.7-0.3,1,0c0.3,0.3,0.3,0.7,0,1c-0.3,0.3-0.7,0.3-1,0
			c-0.1-0.1-0.2-0.3-0.2-0.5C98.1,53.8,98.2,53.6,98.3,53.4L98.3,53.4z M96.5,35.1l0-0.3c0-0.4,0.4-0.7,0.8-0.6
			c0.4,0,0.7,0.4,0.6,0.8c0,0,0,0,0,0l0,0.3c0,0.4-0.4,0.6-0.7,0.6c0,0-0.1,0-0.1,0C96.7,35.9,96.5,35.5,96.5,35.1L96.5,35.1z
			 M94.9,49l1.3-11.2c0-0.4,0.4-0.7,0.8-0.6c0.4,0,0.7,0.4,0.6,0.8c0,0,0,0,0,0l-1.3,11.2c0,0.4-0.4,0.6-0.7,0.6c0,0-0.1,0-0.1,0
			C95.1,49.8,94.8,49.4,94.9,49C94.9,49,94.9,49,94.9,49L94.9,49z"/>
		<path class="st0" d="M150.7,46.5c0.6-2.3-0.1-4.9-0.9-5.9c-0.2-0.3-0.7-0.4-1.1-0.4L140,45c0,0.1,0.1,0.2,0.1,0.3l10.5,1.4
			C150.6,46.6,150.7,46.6,150.7,46.5L150.7,46.5z"/>
		<path class="st0" d="M102.2,67.2h19.7c3.1,0,5.8-1.1,7.6-3.2c-0.2-0.1-0.4-0.1-0.6-0.2c-5.2,1.2-10.5,1.6-15.3,1.6
			c-3.2,0-6.3-0.2-9.4-0.5c-3.4-0.3-6.8-0.9-10.1-1.6C96.1,65.8,99.1,67.2,102.2,67.2L102.2,67.2z"/>
	</g>
	<g>
		<g>
			<path d="M149.3,129.1c0.6-0.2,1.1-0.4,1.6-0.5c0.5-0.1,0.9-0.3,1.3-0.4c0.4-0.1,0.7-0.2,0.9-0.2c0.2,0,0.4-0.1,0.5-0.1
				c0.2,0,0.3,0,0.4,0.1c0.1,0.1,0.1,0.2,0.1,0.4c0,0,0,0.1,0,0.3c0,0.2,0,0.3,0,0.6c0,0.2,0,0.5,0,0.8c0,0.3,0,0.6-0.1,0.9
				c0,0.3,0,0.6-0.1,0.9c0,0.3,0,0.6,0,0.9c0,0.4,0,0.8-0.1,1.2s0,0.8-0.1,1.3c0,0.4,0,0.8,0,1.2s0,0.8,0,1.2l-1.5,0.2l-0.1,0
				c0-0.3,0.1-0.6,0.1-1c0-0.3,0-0.7,0.1-1c0-0.3,0-0.6,0.1-0.9c0-0.3,0-0.5,0-0.7c0-0.6,0-1.2,0.1-2c0-0.7,0-1.6,0-2.5
				c0-0.3,0-0.4-0.1-0.5c-0.1-0.1-0.2-0.2-0.4-0.2c-0.2,0-0.5,0-0.9,0.1c-0.4,0.1-0.9,0.2-1.5,0.4L149.3,129.1z"/>
			<path d="M163,135.2c0,0.1,0.1,0.1,0.1,0.2c0,0.1,0,0.1,0,0.2c0,0.1-0.1,0.3-0.3,0.4c-0.4,0.2-0.8,0.4-1.2,0.5
				c-0.4,0.1-0.8,0.1-1.3,0.1c-0.5,0-1-0.1-1.4-0.3c-0.5-0.2-0.9-0.4-1.2-0.8c-0.3-0.3-0.6-0.8-0.8-1.3c-0.2-0.5-0.3-1-0.3-1.7
				c0-0.5,0.1-1,0.2-1.4c0.1-0.4,0.3-0.8,0.5-1.2c0.2-0.3,0.5-0.7,0.8-0.9c0.3-0.3,0.6-0.5,0.9-0.7c0.3-0.2,0.7-0.3,1.1-0.4
				c0.4-0.1,0.8-0.1,1.1-0.1c0.4,0,0.7,0,1.1,0.1c0.4,0.1,0.7,0.3,1,0.5c0.3,0.2,0.6,0.5,0.9,0.8s0.5,0.7,0.7,1.1
				c0.2,0.4,0.4,0.9,0.5,1.5c0.1,0.6,0.2,1.2,0.2,1.9c0,0.5,0,1-0.1,1.5c-0.1,0.5-0.2,1-0.3,1.5c-0.1,0.5-0.3,1-0.5,1.5
				c-0.2,0.5-0.4,0.9-0.7,1.4c-0.3,0.4-0.6,0.8-0.9,1.2s-0.7,0.7-1.1,0.9c-0.4,0.3-0.9,0.5-1.3,0.6c-0.5,0.1-1,0.2-1.6,0.2
				c-0.4,0-0.8,0-1.2-0.1c-0.3-0.1-0.6-0.2-0.9-0.4c-0.2-0.1-0.4-0.3-0.6-0.5c-0.1-0.2-0.2-0.4-0.2-0.5c0-0.1,0-0.2,0-0.3
				c0-0.1,0.1-0.2,0.2-0.3c0.1-0.1,0.2-0.2,0.3-0.2c0.1-0.1,0.3-0.1,0.4-0.1c0.2,0.3,0.4,0.5,0.6,0.7c0.2,0.2,0.4,0.3,0.7,0.4
				c0.2,0.1,0.5,0.2,0.7,0.2c0.2,0,0.5,0.1,0.7,0.1c0.7,0,1.3-0.2,1.7-0.5c0.5-0.3,0.9-0.8,1.2-1.4c0.3-0.6,0.6-1.4,0.7-2.2
				c0.2-0.9,0.2-1.8,0.2-2.9c0-1-0.1-1.9-0.2-2.7c-0.2-0.7-0.4-1.3-0.7-1.8c-0.3-0.5-0.6-0.8-0.9-1c-0.4-0.2-0.7-0.3-1.1-0.3
				c-0.4,0-0.8,0.1-1.1,0.2c-0.3,0.1-0.6,0.3-0.8,0.6c-0.2,0.3-0.4,0.6-0.5,1c-0.1,0.4-0.2,0.9-0.2,1.4c0,0.3,0,0.6,0.1,0.9
				c0.1,0.3,0.1,0.6,0.2,0.9s0.2,0.5,0.4,0.8c0.2,0.2,0.4,0.5,0.6,0.7c0.2,0.2,0.5,0.3,0.7,0.4c0.3,0.1,0.6,0.2,0.9,0.2
				c0.3,0,0.6,0,0.9-0.1C162.4,135.5,162.7,135.4,163,135.2z"/>
			<path d="M173.9,135.2c0,0.1,0.1,0.1,0.1,0.2c0,0.1,0,0.1,0,0.2c0,0.1-0.1,0.3-0.3,0.4c-0.4,0.2-0.8,0.4-1.2,0.5
				c-0.4,0.1-0.8,0.1-1.3,0.1c-0.5,0-1-0.1-1.4-0.3c-0.5-0.2-0.9-0.4-1.2-0.8c-0.3-0.3-0.6-0.8-0.8-1.3c-0.2-0.5-0.3-1-0.3-1.7
				c0-0.5,0.1-1,0.2-1.4c0.1-0.4,0.3-0.8,0.5-1.2c0.2-0.3,0.5-0.7,0.8-0.9c0.3-0.3,0.6-0.5,0.9-0.7c0.3-0.2,0.7-0.3,1.1-0.4
				c0.4-0.1,0.8-0.1,1.1-0.1c0.4,0,0.7,0,1.1,0.1c0.4,0.1,0.7,0.3,1,0.5c0.3,0.2,0.6,0.5,0.9,0.8c0.3,0.3,0.5,0.7,0.7,1.1
				c0.2,0.4,0.4,0.9,0.5,1.5c0.1,0.6,0.2,1.2,0.2,1.9c0,0.5,0,1-0.1,1.5c-0.1,0.5-0.2,1-0.3,1.5c-0.1,0.5-0.3,1-0.5,1.5
				c-0.2,0.5-0.4,0.9-0.7,1.4c-0.3,0.4-0.6,0.8-0.9,1.2c-0.3,0.4-0.7,0.7-1.1,0.9c-0.4,0.3-0.9,0.5-1.3,0.6c-0.5,0.1-1,0.2-1.6,0.2
				c-0.4,0-0.8,0-1.2-0.1c-0.3-0.1-0.6-0.2-0.9-0.4c-0.2-0.1-0.4-0.3-0.6-0.5c-0.1-0.2-0.2-0.4-0.2-0.5c0-0.1,0-0.2,0-0.3
				c0-0.1,0.1-0.2,0.2-0.3c0.1-0.1,0.2-0.2,0.3-0.2c0.1-0.1,0.3-0.1,0.4-0.1c0.2,0.3,0.4,0.5,0.6,0.7c0.2,0.2,0.4,0.3,0.7,0.4
				c0.2,0.1,0.5,0.2,0.7,0.2c0.2,0,0.5,0.1,0.7,0.1c0.7,0,1.3-0.2,1.7-0.5c0.5-0.3,0.9-0.8,1.2-1.4c0.3-0.6,0.6-1.4,0.7-2.2
				c0.2-0.9,0.2-1.8,0.2-2.9c0-1-0.1-1.9-0.2-2.7c-0.2-0.7-0.4-1.3-0.7-1.8c-0.3-0.5-0.6-0.8-0.9-1c-0.4-0.2-0.7-0.3-1.1-0.3
				c-0.4,0-0.8,0.1-1.1,0.2c-0.3,0.1-0.6,0.3-0.8,0.6c-0.2,0.3-0.4,0.6-0.5,1c-0.1,0.4-0.2,0.9-0.2,1.4c0,0.3,0,0.6,0.1,0.9
				c0.1,0.3,0.1,0.6,0.2,0.9s0.2,0.5,0.4,0.8c0.2,0.2,0.4,0.5,0.6,0.7c0.2,0.2,0.5,0.3,0.7,0.4c0.3,0.1,0.6,0.2,0.9,0.2
				c0.3,0,0.6,0,0.9-0.1C173.2,135.5,173.6,135.4,173.9,135.2z"/>
			<path d="M186.6,126.1c0,0.4-0.1,0.9-0.2,1.2s-0.4,0.8-0.7,1.1c-0.3,0.3-0.6,0.6-0.9,0.9c-0.3,0.3-0.7,0.5-1.1,0.8
				c0.3,0.1,0.5,0.3,0.8,0.4s0.5,0.3,0.8,0.5c0.2,0.2,0.5,0.3,0.7,0.5s0.4,0.4,0.5,0.6c0.2,0.2,0.3,0.5,0.4,0.8
				c0.1,0.3,0.1,0.6,0.1,0.9c0,0.6-0.1,1.1-0.4,1.6c-0.2,0.5-0.6,0.9-1,1.3c-0.4,0.4-1,0.7-1.6,0.9c-0.6,0.2-1.3,0.3-2,0.3
				c-0.5,0-1-0.1-1.5-0.2c-0.5-0.1-0.9-0.3-1.3-0.6c-0.4-0.3-0.7-0.6-0.9-1s-0.3-0.9-0.3-1.5c0-0.5,0.1-0.9,0.2-1.3
				c0.2-0.4,0.4-0.8,0.6-1.1c0.3-0.3,0.6-0.6,0.9-0.9s0.8-0.6,1.2-0.8c-0.3-0.2-0.6-0.4-0.9-0.6c-0.3-0.2-0.5-0.5-0.7-0.8
				c-0.2-0.3-0.4-0.6-0.5-0.9s-0.2-0.7-0.2-1.2c0-0.6,0.1-1.1,0.4-1.6c0.2-0.5,0.6-0.9,1-1.2c0.4-0.3,0.9-0.6,1.4-0.8
				c0.5-0.2,1.1-0.3,1.7-0.3c0.4,0,0.8,0.1,1.2,0.2c0.4,0.1,0.7,0.3,1.1,0.5c0.3,0.2,0.6,0.5,0.7,0.9
				C186.5,125.3,186.6,125.7,186.6,126.1z M181.7,131c-0.3,0.2-0.5,0.4-0.8,0.6c-0.2,0.2-0.4,0.5-0.6,0.7c-0.2,0.3-0.3,0.6-0.4,0.9
				c-0.1,0.3-0.1,0.7-0.1,1c0,0.4,0.1,0.8,0.2,1.1c0.1,0.4,0.3,0.7,0.5,1s0.5,0.5,0.9,0.6c0.3,0.2,0.7,0.2,1.2,0.2
				c0.4,0,0.7-0.1,1.1-0.2c0.4-0.1,0.7-0.3,0.9-0.5c0.3-0.2,0.5-0.5,0.7-0.8c0.2-0.3,0.3-0.7,0.3-1.1c0-0.5-0.1-0.9-0.3-1.2
				c-0.2-0.3-0.4-0.6-0.7-0.9c-0.3-0.3-0.6-0.5-1-0.7s-0.8-0.4-1.2-0.6L181.7,131z M180.3,126.4c0,0.4,0.1,0.8,0.2,1.2
				c0.2,0.3,0.4,0.6,0.6,0.9c0.3,0.3,0.6,0.5,0.9,0.7s0.7,0.4,1.1,0.6c0.3-0.2,0.6-0.5,0.9-0.7c0.3-0.2,0.5-0.5,0.6-0.7
				s0.3-0.5,0.4-0.8c0.1-0.3,0.1-0.6,0.1-1c0-0.3,0-0.7-0.1-1c-0.1-0.3-0.2-0.5-0.4-0.8s-0.4-0.4-0.7-0.5s-0.6-0.2-1-0.2
				c-0.3,0-0.7,0.1-1,0.1c-0.3,0.1-0.6,0.2-0.8,0.4c-0.2,0.2-0.4,0.4-0.5,0.7S180.3,126.1,180.3,126.4z"/>
		</g>
		<g>
			<g id="Layer_1_17_">
				<g>
					<g>
						<g>
							<path d="M131.7,128.1c-1.3,0.9-3.1,2.2-4,2.2c-0.2,0-0.2,0-0.3-0.1c-0.3-0.4-0.2-1.9,0.3-4.3c0.1-0.2-0.1-0.5-0.3-0.6
								c-0.2-0.1-0.5,0-0.6,0.2c-1.8,2.7-2.6,3.2-3,3.2c-0.5,0-1.1-1.5-1.6-4.5c0-0.2-0.2-0.4-0.5-0.4v0c0,0,0,0,0,0c0,0,0,0,0,0v0
								c-0.2,0-0.4,0.2-0.5,0.4c-0.5,3-1.1,4.5-1.6,4.5c-0.4,0-1.2-0.6-3-3.2c-0.1-0.2-0.4-0.3-0.6-0.2c-0.2,0.1-0.4,0.3-0.3,0.6
								c0.5,2.5,0.6,3.9,0.3,4.3c0,0-0.1,0.1-0.3,0.1c-0.8,0-2.7-1.2-4-2.2c-0.2-0.1-0.5-0.1-0.7,0.1c-0.2,0.2-0.2,0.5-0.1,0.7
								c3,3.8,2.4,8.2,2.4,8.2c0,0.1,0,0.1,0,0.2c0,1.1,1.5,1.5,2.8,1.8c1.4,0.3,3.4,0.4,5.4,0.4v0c0,0,0,0,0.1,0c0,0,0,0,0.1,0v0
								c2,0,3.9-0.2,5.4-0.4c1.3-0.3,2.8-0.7,2.8-1.8c0-0.1,0-0.1,0-0.2c0,0-0.6-4.4,2.4-8.2c0.1-0.2,0.1-0.5-0.1-0.7
								C132.2,128,131.9,128,131.7,128.1z M121.8,137.9L121.8,137.9C121.8,137.9,121.7,137.9,121.8,137.9c-0.1,0-0.1,0-0.1,0h0
								c-3.2,0-5.3-0.4-6.3-0.7c0.9-0.3,3.1-0.7,6.3-0.7h0c0,0,0,0,0.1,0s0,0,0.1,0h0c3.2,0,5.3,0.4,6.3,0.7
								C127.1,137.5,125,137.9,121.8,137.9z"/>
						</g>
					</g>
					<g>
						<g>
							<circle cx="121.7" cy="121.6" r="1.6"/>
						</g>
					</g>
					<g>
						<g>
							<circle cx="115.1" cy="123.5" r="1.3"/>
						</g>
					</g>
					<g>
						<g>
							<circle cx="128.2" cy="123.5" r="1.3"/>
						</g>
					</g>
					<g>
						<g>
							<circle cx="110.1" cy="127.2" r="0.9"/>
						</g>
					</g>
					<g>
						<g>
							<circle cx="133.4" cy="127.2" r="0.9"/>
						</g>
					</g>
				</g>
			</g>
		</g>
		<g>
			<path d="M51.8,136.7c0,0.1,0,0.2,0,0.3c0,0.1,0,0.2,0,0.3c0,0.5,0.1,0.9,0.2,1.3c0.1,0.4,0.3,0.6,0.6,0.9
				c0.3,0.2,0.6,0.4,0.9,0.5c0.4,0.1,0.8,0.2,1.2,0.2s0.9-0.1,1.3-0.2c0.4-0.1,0.7-0.3,1-0.5c0.3-0.2,0.5-0.5,0.7-0.9
				c0.2-0.4,0.3-0.8,0.3-1.3c0-0.3,0-0.6-0.1-0.8c-0.1-0.3-0.2-0.5-0.3-0.7c-0.1-0.2-0.3-0.4-0.5-0.6c-0.2-0.2-0.4-0.3-0.6-0.5
				c-0.2-0.2-0.5-0.3-0.7-0.5c-0.3-0.1-0.5-0.3-0.8-0.4c-0.3-0.2-0.6-0.3-0.8-0.5c-0.3-0.2-0.5-0.3-0.8-0.5
				c-0.3-0.2-0.5-0.4-0.7-0.6c-0.2-0.2-0.4-0.4-0.6-0.7c-0.2-0.3-0.3-0.5-0.4-0.9c-0.1-0.3-0.1-0.7-0.1-1c0-0.5,0.1-0.9,0.2-1.3
				s0.3-0.8,0.5-1.1c0.2-0.3,0.5-0.6,0.8-0.9c0.3-0.3,0.6-0.5,1-0.7c0.4-0.2,0.7-0.3,1.1-0.4c0.4-0.1,0.8-0.1,1.3-0.1
				c0.2,0,0.4,0,0.6,0c0.2,0,0.4,0.1,0.7,0.1c0.2,0,0.4,0.1,0.6,0.2c0.2,0.1,0.4,0.1,0.5,0.2c0.2,0.1,0.3,0.2,0.4,0.3
				c0.1,0.1,0.1,0.2,0.1,0.3c0,0.1,0,0.3,0,0.5c0,0.2,0,0.4,0,0.7c0,0.2,0,0.5,0,0.8c0,0.3,0,0.6,0,0.9l-0.7,0c0-0.2,0-0.3,0-0.5
				c0-0.4-0.1-0.8-0.2-1.2c-0.1-0.3-0.3-0.6-0.6-0.8c-0.2-0.2-0.5-0.4-0.9-0.5c-0.3-0.1-0.7-0.2-1.1-0.2c-0.4,0-0.8,0.1-1.1,0.2
				c-0.4,0.1-0.7,0.3-0.9,0.6c-0.3,0.2-0.5,0.5-0.6,0.9c-0.1,0.3-0.2,0.7-0.2,1.1c0,0.3,0,0.6,0.1,0.9c0.1,0.3,0.2,0.5,0.4,0.7
				c0.1,0.2,0.3,0.4,0.5,0.6c0.2,0.2,0.4,0.4,0.7,0.5c0.2,0.2,0.5,0.3,0.8,0.5c0.3,0.1,0.5,0.3,0.8,0.4c0.3,0.1,0.6,0.3,0.8,0.5
				c0.3,0.2,0.5,0.3,0.8,0.5c0.3,0.2,0.5,0.4,0.7,0.6c0.2,0.2,0.4,0.4,0.6,0.7c0.2,0.3,0.3,0.5,0.4,0.8c0.1,0.3,0.1,0.6,0.1,1
				c0,0.6-0.1,1.2-0.3,1.6c-0.2,0.5-0.4,0.9-0.7,1.2s-0.6,0.6-1,0.9c-0.4,0.2-0.7,0.4-1.1,0.6c-0.4,0.1-0.8,0.3-1.2,0.3
				c-0.4,0.1-0.8,0.1-1.1,0.1c-0.4,0-0.9,0-1.2-0.1c-0.4-0.1-0.7-0.1-1-0.2c-0.3-0.1-0.5-0.2-0.7-0.3c-0.2-0.1-0.3-0.3-0.3-0.4
				c0-0.3,0-0.7,0-1.3s0.1-1.2,0.1-2L51.8,136.7z"/>
			<path d="M63.5,131.2c-0.1,0.5-0.1,1-0.2,1.5c-0.1,0.5-0.1,1-0.1,1.5c0,0.5-0.1,0.9-0.1,1.4c0,0.4,0,0.8,0,1.2c0,0.5,0,0.9,0,1.2
				s0,0.6,0.1,0.8s0.1,0.4,0.1,0.5c0,0.1,0.1,0.2,0.2,0.3c0.1,0.1,0.1,0.1,0.2,0.1c0.1,0,0.2,0,0.3,0c0.2,0,0.4,0,0.7-0.1
				c0.2-0.1,0.5-0.2,0.8-0.3l0.1,0.3c-0.2,0.1-0.4,0.3-0.6,0.4c-0.2,0.1-0.5,0.3-0.8,0.4c-0.3,0.1-0.5,0.2-0.8,0.3
				c-0.3,0.1-0.5,0.1-0.7,0.1c-0.1,0-0.2,0-0.3,0c-0.1,0-0.2-0.1-0.3-0.2c-0.1-0.1-0.2-0.2-0.2-0.4c-0.1-0.2-0.1-0.4-0.2-0.6
				c0-0.3-0.1-0.6-0.1-1c0-0.4,0-0.9,0-1.5c0-0.3,0-0.7,0-1.1c0-0.4,0-0.9,0-1.4s0-1,0.1-1.5c0-0.5,0.1-1.1,0.1-1.7
				c0-0.1,0-0.2,0.1-0.3s0.1-0.1,0.2-0.2c0.1,0,0.2-0.1,0.3-0.1c0.1,0,0.2,0,0.3,0C62.9,131,63.2,131.1,63.5,131.2z M62.9,128.2
				c-0.2,0-0.3,0-0.4-0.1c-0.1-0.1-0.2-0.1-0.3-0.3c-0.1-0.1-0.1-0.2-0.2-0.4c0-0.1-0.1-0.3-0.1-0.4c0-0.2,0-0.4,0.1-0.5
				c0.1-0.2,0.2-0.3,0.3-0.4c0.1-0.1,0.2-0.2,0.4-0.2c0.1-0.1,0.3-0.1,0.4-0.1c0.2,0,0.3,0,0.4,0.1c0.1,0.1,0.2,0.1,0.3,0.2
				c0.1,0.1,0.2,0.2,0.2,0.3c0,0.1,0.1,0.3,0.1,0.4c0,0.2,0,0.3-0.1,0.5c-0.1,0.2-0.1,0.3-0.2,0.4c-0.1,0.1-0.2,0.2-0.3,0.3
				C63.2,128.2,63.1,128.2,62.9,128.2z"/>
			<path d="M67.4,132.9c0-0.2,0-0.3,0-0.5c0-0.1-0.1-0.2-0.1-0.3c-0.1-0.1-0.1-0.1-0.2-0.2c-0.1,0-0.2,0-0.3,0c-0.2,0-0.4,0-0.6,0.1
				c-0.2,0-0.5,0.1-0.8,0.2l-0.1-0.5c0.3-0.1,0.6-0.2,0.9-0.3c0.3-0.1,0.6-0.2,0.8-0.2s0.5-0.1,0.6-0.2c0.2,0,0.3-0.1,0.4-0.1
				c0.3,0,0.5,0.1,0.6,0.2c0.1,0.2,0.2,0.4,0.2,0.8c0,0,0,0.1,0,0.3c0,0.2,0,0.4,0,0.6c0,0.2,0,0.5-0.1,0.9c0,0.3,0,0.7-0.1,1
				c0,0.4-0.1,0.7-0.1,1.1c0,0.4-0.1,0.8-0.1,1.2l0,0c0.3-1.1,0.7-2.1,1.1-2.9c0.4-0.8,0.8-1.4,1.2-1.9c0.4-0.5,0.8-0.8,1.2-1.1
				c0.4-0.2,0.8-0.3,1.1-0.3c0.2,0,0.5,0,0.7,0.1c0.2,0.1,0.4,0.2,0.6,0.4c0.2,0.2,0.3,0.5,0.4,0.8c0.1,0.3,0.2,0.7,0.2,1.2
				c0,0.1,0,0.3,0,0.5c0,0.2,0,0.5-0.1,0.8c0,0.3,0,0.6-0.1,0.9c0,0.3-0.1,0.6-0.1,0.9c0,0.3,0,0.6-0.1,0.9c0,0.3,0,0.5,0,0.7
				c0,0.3,0,0.6,0,0.8c0,0.2,0.1,0.4,0.1,0.5c0.1,0.1,0.2,0.2,0.3,0.3c0.1,0,0.2,0.1,0.4,0.1c0.2,0,0.5,0,0.7-0.1
				c0.2-0.1,0.5-0.2,0.8-0.3l0.1,0.3c-0.2,0.1-0.4,0.3-0.6,0.4c-0.2,0.1-0.5,0.3-0.8,0.4c-0.3,0.1-0.5,0.2-0.8,0.3
				c-0.3,0.1-0.5,0.1-0.7,0.1c-0.2,0-0.4-0.1-0.6-0.2c-0.1-0.1-0.2-0.3-0.3-0.5c-0.1-0.2-0.1-0.5-0.1-0.8c0-0.3,0-0.6,0-1
				c0-0.4,0-0.8,0-1.3c0-0.4,0.1-0.9,0.1-1.3c0-0.4,0.1-0.8,0.1-1.1c0-0.3,0-0.6,0-0.8c0-0.5-0.1-0.9-0.3-1.2
				c-0.2-0.2-0.5-0.4-0.8-0.4c-0.3,0-0.5,0.1-0.8,0.3s-0.6,0.5-0.9,0.9c-0.3,0.4-0.6,0.8-0.8,1.3c-0.3,0.5-0.5,1.1-0.7,1.7
				c-0.2,0.6-0.4,1.2-0.5,1.9c-0.1,0.7-0.2,1.3-0.3,2l-1.4,0.2l-0.1,0c0-0.4,0.1-0.9,0.1-1.4c0-0.5,0.1-1,0.1-1.5
				c0-0.5,0.1-1,0.1-1.5c0-0.5,0-1,0.1-1.4c0-0.4,0-0.8,0-1.2C67.4,133.4,67.4,133.1,67.4,132.9z"/>
			<path d="M83.4,133.8c0.1-0.2,0.2-0.5,0.2-0.7c0-0.2,0-0.3-0.1-0.5c-0.1-0.2-0.2-0.3-0.3-0.4c-0.1-0.1-0.3-0.2-0.5-0.3
				c-0.2-0.1-0.4-0.1-0.6-0.1c-0.3,0-0.7,0.1-0.9,0.2c-0.3,0.1-0.5,0.3-0.7,0.5c-0.2,0.2-0.4,0.5-0.5,0.7c-0.1,0.3-0.3,0.6-0.4,0.9
				c-0.1,0.3-0.2,0.6-0.2,1s-0.1,0.7-0.1,1c0,0.6,0.1,1.1,0.2,1.6c0.1,0.5,0.4,0.9,0.6,1.2c0.3,0.3,0.5,0.6,0.9,0.8
				c0.3,0.2,0.7,0.3,1.1,0.3c0.4,0,0.8-0.1,1.2-0.3c0.4-0.2,0.8-0.6,1.2-1c0,0,0.1,0,0.1,0.1c0,0,0.1,0.1,0.1,0.1
				c0,0,0.1,0.1,0.1,0.1c0,0,0,0.1,0,0.1c0,0,0,0,0,0l0,0c-0.4,0.7-1,1.2-1.6,1.6c-0.6,0.3-1.3,0.5-2,0.5c-0.4,0-0.8-0.1-1.1-0.2
				c-0.3-0.1-0.6-0.3-0.9-0.5c-0.3-0.2-0.5-0.4-0.7-0.7c-0.2-0.3-0.4-0.6-0.5-0.9c-0.1-0.3-0.2-0.6-0.3-1c-0.1-0.3-0.1-0.7-0.1-1
				c0-0.5,0.1-0.9,0.2-1.4c0.1-0.5,0.3-0.9,0.5-1.4c0.2-0.4,0.4-0.8,0.7-1.2c0.3-0.4,0.6-0.7,1-1c0.4-0.3,0.8-0.5,1.2-0.7
				c0.4-0.2,0.9-0.2,1.4-0.2c0.4,0,0.7,0,1,0.1s0.6,0.2,0.8,0.4c0.2,0.2,0.4,0.4,0.5,0.6c0.1,0.2,0.2,0.5,0.2,0.8
				c0,0.2,0,0.3-0.1,0.5c-0.1,0.1-0.1,0.3-0.2,0.4c-0.1,0.1-0.2,0.2-0.4,0.2c-0.1,0.1-0.3,0.1-0.4,0.1c-0.1,0-0.2,0-0.3,0
				C83.6,133.9,83.5,133.9,83.4,133.8L83.4,133.8z"/>
			<path d="M93,138.6c0,0,0.1,0,0.1,0.1c0,0,0.1,0.1,0.1,0.1c0,0,0.1,0.1,0.1,0.1c0,0,0,0.1,0,0.1c0,0,0,0,0,0.1
				c-0.2,0.3-0.5,0.6-0.8,0.9c-0.3,0.3-0.6,0.5-0.9,0.6c-0.3,0.2-0.6,0.3-0.9,0.4c-0.3,0.1-0.6,0.1-0.9,0.1c-0.5,0-1-0.1-1.5-0.3
				c-0.4-0.2-0.8-0.5-1.1-0.9c-0.3-0.4-0.6-0.8-0.8-1.3c-0.2-0.5-0.3-1.1-0.3-1.6c0-0.5,0.1-1,0.2-1.4c0.1-0.5,0.3-0.9,0.5-1.4
				c0.2-0.4,0.4-0.8,0.7-1.2s0.6-0.7,1-1c0.4-0.3,0.8-0.5,1.2-0.6c0.4-0.2,0.9-0.2,1.4-0.2c0.3,0,0.6,0,0.9,0.1
				c0.3,0.1,0.6,0.2,0.8,0.4c0.2,0.2,0.4,0.4,0.5,0.6c0.1,0.2,0.2,0.5,0.2,0.8c0,0.5-0.1,0.9-0.4,1.2c-0.3,0.3-0.7,0.6-1.2,0.9
				c-0.5,0.2-1.1,0.4-1.8,0.6c-0.7,0.1-1.5,0.3-2.3,0.3v0.1c0,0.6,0.1,1.1,0.2,1.6c0.1,0.5,0.3,0.9,0.6,1.2c0.3,0.3,0.6,0.6,0.9,0.8
				c0.3,0.2,0.7,0.3,1.1,0.3c0.4,0,0.8-0.1,1.2-0.3C92.1,139.3,92.5,139,93,138.6z M91.7,133.2c0-0.2,0-0.4-0.1-0.6
				c-0.1-0.2-0.2-0.3-0.3-0.5c-0.1-0.1-0.3-0.2-0.4-0.3c-0.2-0.1-0.4-0.1-0.5-0.1c-0.3,0-0.6,0.1-0.8,0.2c-0.2,0.1-0.4,0.2-0.6,0.4
				c-0.2,0.2-0.4,0.4-0.5,0.6c-0.1,0.2-0.3,0.5-0.4,0.7c-0.1,0.3-0.2,0.5-0.2,0.8c-0.1,0.3-0.1,0.5-0.1,0.8c0.6,0,1.2-0.1,1.7-0.2
				c0.5-0.1,0.9-0.2,1.3-0.4c0.3-0.2,0.6-0.4,0.8-0.6C91.6,133.8,91.7,133.5,91.7,133.2z"/>
		</g>
	</g>
</g>
</svg>
