<svg xmlns="http://www.w3.org/2000/svg" width="60" height="60" viewBox="0 0 60 60">
    <g fill="none" fill-rule="evenodd">
        <g fill="#002856" fill-rule="nonzero">
            <g>
                <path d="M30 5.407c8.01 0 8.96.03 12.125.175 8.13.37 11.928 4.228 12.297 12.298.146 3.163.173 4.113.173 12.123 0 8.012-.03 8.96-.172 12.122-.373 8.063-4.16 11.928-12.298 12.297-3.165.146-4.11.175-12.125.175-8.01 0-8.96-.03-12.122-.175-8.15-.372-11.928-4.247-12.298-12.3-.145-3.162-.175-4.11-.175-12.122 0-8.01.032-8.957.175-12.122C5.952 9.81 9.74 5.95 17.878 5.58c3.165-.143 4.112-.173 12.122-.173zM30 0c-8.148 0-9.168.035-12.367.18C6.738.68.683 6.725.183 17.63.035 20.833 0 21.853 0 30c0 8.148.035 9.17.18 12.37.5 10.895 6.545 16.95 17.45 17.45 3.203.145 4.223.18 12.37.18 8.148 0 9.17-.035 12.37-.18 10.885-.5 16.955-6.545 17.448-17.45.147-3.2.182-4.222.182-12.37s-.035-9.168-.18-12.367C59.33 6.747 53.278.683 42.373.183 39.17.035 38.148 0 30 0zm0 14.595c-8.508 0-15.405 6.897-15.405 15.405S21.492 45.407 30 45.407 45.405 38.51 45.405 30c0-8.508-6.898-15.405-15.405-15.405zM30 40c-5.523 0-10-4.475-10-10 0-5.523 4.477-10 10-10s10 4.477 10 10c0 5.525-4.477 10-10 10zm16.015-29.613c-1.99 0-3.602 1.613-3.602 3.6 0 1.988 1.612 3.6 3.602 3.6 1.987 0 3.597-1.612 3.597-3.6 0-1.987-1.61-3.6-3.597-3.6z" transform="translate(-690 -2074) translate(-332 1869) translate(1022 205)"/>
            </g>
        </g>
    </g>
</svg>
