<?xml version="1.0" encoding="utf-8"?>
<!-- Generator: Adobe Illustrator 23.0.1, SVG Export Plug-In . SVG Version: 6.00 Build 0)  -->
<svg version="1.1" id="Layer_1" xmlns="http://www.w3.org/2000/svg" xmlns:xlink="http://www.w3.org/1999/xlink" x="0px" y="0px"
	 viewBox="0 0 65 65" style="enable-background:new 0 0 65 65;" xml:space="preserve">
<style type="text/css">
	.st0{fill-rule:evenodd;clip-rule:evenodd;}
	.st1{fill:#FFFFFF;}
</style>
<g>
	<circle class="st0" cx="32.5" cy="32.5" r="32.5"/>
	<g>
		<g>
			<path class="st1" d="M32,22.9c3.2,0,3.6,0,4.9,0.1c3.3,0.1,4.8,1.7,4.9,4.9c0.1,1.3,0.1,1.6,0.1,4.9c0,3.2,0,3.6-0.1,4.9
				c-0.1,3.2-1.7,4.8-4.9,4.9c-1.3,0.1-1.6,0.1-4.9,0.1c-3.2,0-3.6,0-4.9-0.1c-3.3-0.1-4.8-1.7-4.9-4.9c-0.1-1.3-0.1-1.7-0.1-4.9
				c0-3.2,0-3.6,0.1-4.9c0.2-3.2,1.7-4.8,4.9-4.9C28.4,22.9,28.7,22.9,32,22.9L32,22.9z M32,20.7c-3.3,0-3.7,0-5,0.1
				c-4.4,0.2-6.8,2.6-7,7c-0.1,1.3-0.1,1.7-0.1,5c0,3.3,0,3.7,0.1,5c0.2,4.4,2.6,6.8,7,7c1.3,0.1,1.7,0.1,5,0.1c3.3,0,3.7,0,5-0.1
				c4.4-0.2,6.8-2.6,7-7c0.1-1.3,0.1-1.7,0.1-5c0-3.3,0-3.7-0.1-5c-0.2-4.4-2.6-6.8-7-7C35.6,20.7,35.2,20.7,32,20.7L32,20.7z
				 M32,26.6c-3.4,0-6.2,2.8-6.2,6.2c0,3.4,2.8,6.2,6.2,6.2c3.4,0,6.2-2.8,6.2-6.2C38.1,29.3,35.4,26.6,32,26.6z M32,36.8
				c-2.2,0-4-1.8-4-4c0-2.2,1.8-4,4-4s4,1.8,4,4C36,35,34.2,36.8,32,36.8z M38.4,24.9c-0.8,0-1.4,0.6-1.4,1.4c0,0.8,0.6,1.4,1.4,1.4
				c0.8,0,1.4-0.6,1.4-1.4C39.8,25.5,39.2,24.9,38.4,24.9z"/>
		</g>
	</g>
</g>
</svg>
